<svg width="187" height="122" viewBox="0 0 187 122" fill="none" xmlns="http://www.w3.org/2000/svg">
<path d="M52.8802 44.7683C52.8802 47.0634 53.1279 48.9243 53.5613 50.289C54.0567 51.6537 54.6759 53.1424 55.5428 54.7552C55.8524 55.2514 55.9762 55.7477 55.9762 56.1819C55.9762 56.8022 55.6047 57.4225 54.7997 58.0428L50.8987 60.6481C50.3414 61.0203 49.7841 61.2063 49.2888 61.2063C48.6696 61.2063 48.0504 60.8962 47.4312 60.3379C46.5643 59.4075 45.8212 58.415 45.202 57.4225C44.5828 56.368 43.9636 55.1894 43.2825 53.7627C38.4527 59.4695 32.3845 62.3229 25.0779 62.3229C19.8765 62.3229 15.7279 60.8342 12.6938 57.8567C9.65965 54.8792 8.11163 50.9093 8.11163 45.9469C8.11163 40.6743 9.96925 36.3942 13.7464 33.1686C17.5236 29.943 22.5391 28.3302 28.9169 28.3302C31.0222 28.3302 33.1894 28.5163 35.4805 28.8264C37.7716 29.1366 40.1245 29.6328 42.6014 30.1911V25.6629C42.6014 20.9486 41.6106 17.6609 39.6911 15.738C37.7096 13.8151 34.3659 12.8846 29.5981 12.8846C27.4308 12.8846 25.2017 13.1327 22.9106 13.691C20.6196 14.2493 18.3904 14.9316 16.2232 15.8C15.2325 16.2342 14.4894 16.4824 14.056 16.6064C13.6226 16.7305 13.313 16.7925 13.0653 16.7925C12.1984 16.7925 11.7649 16.1722 11.7649 14.8696V11.8301C11.7649 10.8376 11.8888 10.0932 12.1984 9.65902C12.508 9.2248 13.0653 8.79059 13.9322 8.35638C16.0994 7.23983 18.7 6.30937 21.7341 5.565C24.7683 4.75861 27.9881 4.38642 31.3938 4.38642C38.7623 4.38642 44.1494 6.06125 47.6169 9.41089C51.0226 12.7605 52.7563 17.847 52.7563 24.6704V44.7683H52.8802ZM27.7404 54.1969C29.7838 54.1969 31.8891 53.8247 34.1183 53.0804C36.3474 52.336 38.3289 50.9713 40.0007 49.1104C40.9914 47.9318 41.7345 46.6292 42.106 45.1405C42.4775 43.6517 42.7252 41.8528 42.7252 39.7438V37.1385C40.9295 36.7043 39.01 36.3321 37.0285 36.084C35.0471 35.8359 33.1275 35.7118 31.208 35.7118C27.0593 35.7118 24.0252 36.5182 21.9818 38.193C19.9385 39.8679 18.9477 42.225 18.9477 45.3265C18.9477 48.242 19.6908 50.413 21.2388 51.9018C22.7249 53.4525 24.8921 54.1969 27.7404 54.1969ZM77.4626 60.8962C76.3481 60.8962 75.605 60.7101 75.1096 60.2759C74.6143 59.9037 74.1808 59.0353 73.8093 57.8567L59.258 9.90714C58.8865 8.66653 58.7007 7.86013 58.7007 7.42592C58.7007 6.43343 59.1961 5.87516 60.1868 5.87516H66.255C67.4315 5.87516 68.2365 6.06125 68.6699 6.49546C69.1653 6.86764 69.5368 7.73607 69.9083 8.91465L80.311 49.9788L89.9706 8.91465C90.2802 7.67404 90.6517 6.86764 91.1471 6.49546C91.6424 6.12328 92.5093 5.87516 93.6239 5.87516H98.5775C99.754 5.87516 100.559 6.06125 101.054 6.49546C101.55 6.86764 101.983 7.73607 102.231 8.91465L112.014 50.4751L122.727 8.91465C123.098 7.67404 123.532 6.86764 123.965 6.49546C124.46 6.12328 125.265 5.87516 126.38 5.87516H132.138C133.129 5.87516 133.686 6.3714 133.686 7.42592C133.686 7.73607 133.625 8.04622 133.563 8.41841C133.501 8.79059 133.377 9.28683 133.129 9.96917L118.206 57.9187C117.835 59.1593 117.401 59.9657 116.906 60.3379C116.411 60.7101 115.606 60.9582 114.553 60.9582H109.228C108.051 60.9582 107.246 60.7721 106.751 60.3379C106.256 59.9037 105.822 59.0973 105.575 57.8567L95.9769 17.847L86.4411 57.7947C86.1315 59.0353 85.76 59.8417 85.2646 60.2759C84.7692 60.7101 83.9024 60.8962 82.7878 60.8962H77.4626ZM157.031 62.571C153.811 62.571 150.591 62.1988 147.495 61.4545C144.399 60.7101 141.984 59.9037 140.374 58.9733C139.383 58.415 138.702 57.7947 138.454 57.2364C138.207 56.6781 138.083 56.0578 138.083 55.4995V52.336C138.083 51.0333 138.578 50.413 139.507 50.413C139.879 50.413 140.25 50.4751 140.622 50.5991C140.993 50.7232 141.55 50.9713 142.17 51.2194C144.275 52.1499 146.566 52.8943 148.981 53.3905C151.458 53.8867 153.873 54.1349 156.349 54.1349C160.25 54.1349 163.284 53.4525 165.39 52.0879C167.495 50.7232 168.61 48.7382 168.61 46.195C168.61 44.4581 168.052 43.0314 166.938 41.8528C165.823 40.6743 163.718 39.6197 160.684 38.6273L151.705 35.8359C147.185 34.4092 143.841 32.3001 141.798 29.5088C139.755 26.7794 138.702 23.7399 138.702 20.5143C138.702 17.9091 139.259 15.6139 140.374 13.629C141.488 11.644 142.975 9.90714 144.832 8.54247C146.69 7.11577 148.795 6.06125 151.272 5.31688C153.749 4.57252 156.349 4.26236 159.074 4.26236C160.436 4.26236 161.86 4.32439 163.223 4.51049C164.647 4.69658 165.947 4.9447 167.247 5.19282C168.486 5.50297 169.662 5.81313 170.777 6.18531C171.891 6.55749 172.758 6.92967 173.378 7.30186C174.244 7.7981 174.864 8.29434 175.235 8.85262C175.607 9.34886 175.792 10.0312 175.792 10.8996V13.8151C175.792 15.1177 175.297 15.8 174.368 15.8C173.873 15.8 173.068 15.5519 172.015 15.0557C168.486 13.4429 164.523 12.6365 160.127 12.6365C156.597 12.6365 153.811 13.1948 151.891 14.3733C149.972 15.5519 148.981 17.3508 148.981 19.894C148.981 21.6309 149.6 23.1196 150.838 24.2982C152.077 25.4768 154.368 26.6554 157.65 27.7099L166.442 30.5013C170.901 31.928 174.121 33.9129 176.04 36.4562C177.96 38.9994 178.888 41.9149 178.888 45.1405C178.888 47.8078 178.331 50.227 177.279 52.336C176.164 54.445 174.678 56.3059 172.758 57.7947C170.839 59.3454 168.548 60.462 165.885 61.2684C163.099 62.1368 160.188 62.571 157.031 62.571Z" fill="#252F3E"/>
<path d="M168.733 92.7178C148.362 107.791 118.764 115.793 93.3142 115.793C57.648 115.793 25.5113 102.581 1.23843 80.6219C-0.681109 78.885 1.05267 76.5279 3.34373 77.8925C29.598 93.152 61.9825 102.395 95.4815 102.395C118.082 102.395 142.913 97.6803 165.761 88.0035C169.167 86.4527 172.077 90.2366 168.733 92.7178ZM177.217 83.0411C174.616 79.6914 160.003 81.4283 153.377 82.2347C151.396 82.4828 151.086 80.7459 152.882 79.4433C164.523 71.2553 183.656 73.6124 185.885 76.3418C188.115 79.1332 185.266 98.3006 174.368 107.481C172.696 108.908 171.086 108.163 171.829 106.302C174.306 100.161 179.817 86.3287 177.217 83.0411Z" fill="#FF9900"/>
</svg>
