<svg width="189" height="92" viewBox="0 0 189 92" fill="none" xmlns="http://www.w3.org/2000/svg">
<path d="M0 8.53608V13.7273H36.7885V8.53608H0ZM42.0007 8.53608V13.7273H94.4261C94.4261 13.7273 89.0712 8.53608 81.9787 8.53608H42.0007ZM104.71 8.53608V13.7273H136.427L134.544 8.53608H104.71ZM159.166 8.53608L157.283 13.7273H188.712V8.53608H159.166ZM0 18.6318V23.8231H36.7885V18.6318H0ZM42.0007 18.6392V23.8233H100.509C100.509 23.8233 99.8262 19.8278 98.6342 18.6392H42.0007ZM104.71 18.6392V23.8233H139.904L138.162 18.6392H104.71ZM155.401 18.6392L153.658 23.8233H188.712V18.6392H155.401ZM10.5721 28.7275V33.9262H26.5042V28.7275H10.5721ZM52.573 28.7275V33.9262H68.5051V28.7275H52.573ZM84.0016 28.7275V33.9262H99.9337C99.9337 33.9262 100.945 31.1808 100.945 28.7275H84.0016ZM115.283 28.7275V33.9262H143.529L141.647 28.7275H115.283ZM151.931 28.7275L150.041 33.9262H178.428V28.7275H151.931ZM10.5721 38.8308V44.0221H26.5042V38.8308H10.5721ZM52.573 38.8308V44.0221H93.267C93.267 44.0221 96.6712 41.3585 97.7557 38.8308H52.573ZM115.283 38.8308V44.0221H131.215V41.1323L132.226 44.0221H161.411L162.496 41.1323V44.0221H178.428V38.8308H148.52L146.933 43.2279L145.338 38.8308H115.283ZM10.5721 48.9265V54.1178H26.5042V48.9265H10.5721ZM52.573 48.9265V54.1178H97.7557C96.671 51.5985 93.267 48.9265 93.267 48.9265H52.573ZM115.283 48.9265V54.1178H131.215V48.9265H115.283ZM134.109 48.9265L136.036 54.1178H157.918L159.749 48.9265H134.109ZM162.496 48.9265V54.1178H178.428V48.9265H162.496ZM10.5721 59.0223V64.2133H26.5042V59.0223H10.5721ZM52.573 59.0223V64.2133H68.5051V59.0223H52.573ZM84.0016 59.0223V64.2133H100.945C100.945 61.7635 99.9336 59.0223 99.9336 59.0223H84.0016ZM115.283 59.0223V64.2133H131.215V59.0223H115.283ZM137.726 59.0223L139.594 64.2133H154.264L156.147 59.0223H137.726ZM162.496 59.0223V64.2133H178.428V59.0223H162.496ZM0.287847 69.118V74.3167H37.0763V69.118H0.287847ZM42.0007 69.118V74.3167H98.6342C99.8262 73.1263 100.509 69.118 100.509 69.118H42.0007ZM104.998 69.118V74.3167H131.215V69.118H104.998ZM141.351 69.118L143.271 74.3167H150.735L152.536 69.118H141.351ZM162.496 69.118V74.3167H189V69.118H162.496ZM0.287847 79.2211V84.4124H37.0763V79.2211H0.287847ZM42.0007 79.2211V84.405H81.9787C89.0712 84.405 94.4261 79.2211 94.4261 79.2211H42.0007ZM104.998 79.2211V84.4124H131.215V79.2211H104.998ZM144.991 79.2211L146.837 84.3978L147.154 84.405L149.03 79.2211H144.991ZM162.496 79.2211V84.4124H189V79.2211H162.496Z" fill="#1F70C1"/>
</svg>
