<svg width="119" height="27" viewBox="0 0 119 27" fill="none" xmlns="http://www.w3.org/2000/svg">
<path d="M8 17.5C8.3 16.5031 8.92188 15.6531 9.5375 14.8062C9.7 14.5844 9.8625 14.3625 10.0188 14.1375C10.6375 13.2469 11 12.1688 11 11.0031C11 7.9625 8.5375 5.5 5.5 5.5C2.4625 5.5 0 7.9625 0 11C0 12.1656 0.3625 13.2469 0.98125 14.1344C1.1375 14.3594 1.3 14.5813 1.4625 14.8031C2.08125 15.65 2.70312 16.5031 3 17.4969H8V17.5ZM5.5 21.5C6.88125 21.5 8 20.3813 8 19V18.5H3V19C3 20.3813 4.11875 21.5 5.5 21.5ZM3 11C3 11.275 2.775 11.5 2.5 11.5C2.225 11.5 2 11.275 2 11C2 9.06562 3.56562 7.5 5.5 7.5C5.775 7.5 6 7.725 6 8C6 8.275 5.775 8.5 5.5 8.5C4.11875 8.5 3 9.61875 3 11Z" fill="#2B7FFF"/>
<path d="M22.1517 20V9.59441H25.0376V20H22.1517ZM23.6014 8.25306C23.1723 8.25306 22.8043 8.11079 22.4972 7.82627C22.1946 7.53722 22.0433 7.19172 22.0433 6.78977C22.0433 6.39234 22.1946 6.05135 22.4972 5.76683C22.8043 5.47778 23.1723 5.33326 23.6014 5.33326C24.0304 5.33326 24.3963 5.47778 24.6989 5.76683C25.006 6.05135 25.1595 6.39234 25.1595 6.78977C25.1595 7.19172 25.006 7.53722 24.6989 7.82627C24.3963 8.11079 24.0304 8.25306 23.6014 8.25306ZM30.2353 13.9843V20H27.3494V9.59441H30.0998V11.4303H30.2218C30.4521 10.8251 30.8382 10.3464 31.3802 9.9941C31.9221 9.63731 32.5793 9.45892 33.3516 9.45892C34.0742 9.45892 34.7042 9.61699 35.2416 9.93313C35.7791 10.2493 36.1968 10.7009 36.4949 11.288C36.793 11.8706 36.942 12.5661 36.942 13.3746V20H34.0561V13.8894C34.0606 13.2526 33.898 12.7558 33.5683 12.399C33.2387 12.0377 32.7848 11.8571 32.2067 11.8571C31.8183 11.8571 31.475 11.9406 31.177 12.1077C30.8834 12.2748 30.6531 12.5187 30.486 12.8394C30.3234 13.1555 30.2398 13.5372 30.2353 13.9843ZM40.9034 20.1761C40.4563 20.1761 40.0724 20.0181 39.7517 19.7019C39.4356 19.3813 39.2775 18.9974 39.2775 18.5503C39.2775 18.1077 39.4356 17.7283 39.7517 17.4122C40.0724 17.096 40.4563 16.9379 40.9034 16.9379C41.337 16.9379 41.7163 17.096 42.0415 17.4122C42.3667 17.7283 42.5293 18.1077 42.5293 18.5503C42.5293 18.8483 42.4525 19.1216 42.299 19.37C42.1499 19.6139 41.9535 19.8103 41.7096 19.9594C41.4657 20.1039 41.197 20.1761 40.9034 20.1761ZM54.5997 9.59441L50.9618 20H47.7101L44.0722 9.59441H47.1207L49.2817 17.0396H49.3901L51.5444 9.59441H54.5997ZM60.4427 20.2032C59.3904 20.2032 58.4803 19.9797 57.7126 19.5326C56.9493 19.0809 56.3599 18.4532 55.9444 17.6493C55.5289 16.8408 55.3212 15.9037 55.3212 14.8378C55.3212 13.763 55.5289 12.8236 55.9444 12.0197C56.3599 11.2112 56.9493 10.5835 57.7126 10.1364C58.4803 9.68473 59.3904 9.45892 60.4427 9.45892C61.495 9.45892 62.4028 9.68473 63.166 10.1364C63.9338 10.5835 64.5254 11.2112 64.9409 12.0197C65.3564 12.8236 65.5642 13.763 65.5642 14.8378C65.5642 15.9037 65.3564 16.8408 64.9409 17.6493C64.5254 18.4532 63.9338 19.0809 63.166 19.5326C62.4028 19.9797 61.495 20.2032 60.4427 20.2032ZM60.4562 17.9677C60.935 17.9677 61.3347 17.8322 61.6553 17.5612C61.976 17.2857 62.2176 16.9108 62.3802 16.4366C62.5473 15.9624 62.6308 15.4227 62.6308 14.8175C62.6308 14.2123 62.5473 13.6726 62.3802 13.1984C62.2176 12.7242 61.976 12.3494 61.6553 12.0739C61.3347 11.7984 60.935 11.6606 60.4562 11.6606C59.973 11.6606 59.5665 11.7984 59.2368 12.0739C58.9117 12.3494 58.6655 12.7242 58.4984 13.1984C58.3358 13.6726 58.2545 14.2123 58.2545 14.8175C58.2545 15.4227 58.3358 15.9624 58.4984 16.4366C58.6655 16.9108 58.9117 17.2857 59.2368 17.5612C59.5665 17.8322 59.973 17.9677 60.4562 17.9677ZM67.4407 20V9.59441H70.3267V20H67.4407ZM68.8905 8.25306C68.4614 8.25306 68.0933 8.11079 67.7862 7.82627C67.4836 7.53722 67.3323 7.19172 67.3323 6.78977C67.3323 6.39234 67.4836 6.05135 67.7862 5.76683C68.0933 5.47778 68.4614 5.33326 68.8905 5.33326C69.3195 5.33326 69.6853 5.47778 69.9879 5.76683C70.295 6.05135 70.4486 6.39234 70.4486 6.78977C70.4486 7.19172 70.295 7.53722 69.9879 7.82627C69.6853 8.11079 69.3195 8.25306 68.8905 8.25306ZM77.3399 20.2032C76.2741 20.2032 75.3573 19.9774 74.5895 19.5258C73.8262 19.0696 73.2391 18.4374 72.8281 17.6289C72.4217 16.8205 72.2184 15.8902 72.2184 14.8378C72.2184 13.772 72.4239 12.8371 72.8349 12.0332C73.2504 11.2248 73.8398 10.5948 74.603 10.1431C75.3663 9.68699 76.2741 9.45892 77.3264 9.45892C78.2342 9.45892 79.029 9.62376 79.711 9.95345C80.393 10.2831 80.9327 10.7461 81.3301 11.3422C81.7275 11.9384 81.9466 12.6384 81.9872 13.4423H79.2639C79.1871 12.9229 78.9839 12.5052 78.6542 12.189C78.329 11.8684 77.9022 11.708 77.3738 11.708C76.9267 11.708 76.536 11.83 76.2018 12.0739C75.8721 12.3132 75.6147 12.6632 75.4295 13.1239C75.2444 13.5846 75.1518 14.1423 75.1518 14.7972C75.1518 15.4611 75.2421 16.0256 75.4227 16.4908C75.6079 16.956 75.8676 17.3105 76.2018 17.5544C76.536 17.7983 76.9267 17.9202 77.3738 17.9202C77.7035 17.9202 77.9993 17.8525 78.2613 17.717C78.5277 17.5815 78.7468 17.3851 78.9184 17.1276C79.0945 16.8657 79.2097 16.5518 79.2639 16.186H81.9872C81.9421 16.9808 81.7253 17.6809 81.3369 18.2861C80.953 18.8867 80.4223 19.3564 79.7449 19.6951C79.0674 20.0339 78.2658 20.2032 77.3399 20.2032ZM88.5771 20.2032C87.5067 20.2032 86.5854 19.9865 85.8131 19.5529C85.0453 19.1148 84.4537 18.4961 84.0382 17.6967C83.6227 16.8928 83.4149 15.9421 83.4149 14.8446C83.4149 13.7743 83.6227 12.8349 84.0382 12.0264C84.4537 11.218 85.0386 10.588 85.7928 10.1364C86.5515 9.68473 87.4412 9.45892 88.4619 9.45892C89.1484 9.45892 89.7875 9.56957 90.3791 9.79087C90.9753 10.0076 91.4946 10.3351 91.9372 10.7732C92.3843 11.2112 92.7321 11.7622 92.9805 12.4261C93.2289 13.0855 93.3531 13.8578 93.3531 14.743V15.5356H84.5666V13.7472H90.6365C90.6365 13.3317 90.5462 12.9636 90.3655 12.6429C90.1849 12.3223 89.9342 12.0716 89.6136 11.891C89.2974 11.7058 88.9294 11.6132 88.5093 11.6132C88.0713 11.6132 87.6829 11.7148 87.3441 11.9181C87.0099 12.1168 86.748 12.3855 86.5583 12.7242C86.3686 13.0584 86.2715 13.431 86.267 13.842V15.5424C86.267 16.0573 86.3618 16.5021 86.5515 16.877C86.7457 17.2518 87.019 17.5409 87.3712 17.7441C87.7235 17.9473 88.1413 18.049 88.6245 18.049C88.9452 18.049 89.2387 18.0038 89.5052 17.9135C89.7717 17.8231 89.9997 17.6876 90.1894 17.507C90.3791 17.3263 90.5236 17.105 90.623 16.8431L93.2921 17.0192C93.1566 17.6605 92.8789 18.2206 92.4589 18.6993C92.0434 19.1735 91.5059 19.5439 90.8465 19.8103C90.1917 20.0723 89.4352 20.2032 88.5771 20.2032ZM102.097 20H98.9539L103.743 6.12587H107.524L112.306 20H109.163L105.688 9.29633H105.579L102.097 20ZM101.901 14.5465H109.326V16.8363H101.901V14.5465ZM116.91 6.12587V20H113.976V6.12587H116.91Z" fill="#1E1E1E"/>
</svg>
