<svg width="187" height="49" viewBox="0 0 187 49" fill="none" xmlns="http://www.w3.org/2000/svg">
<g clip-path="url(#clip0_1_32)">
<path d="M187 22.8204V19.506H182.916V14.3534L182.779 14.3961L178.943 15.5789L178.867 15.6021V19.5062H172.813V17.3313C172.813 16.3185 173.037 15.5436 173.48 15.0267C173.92 14.5161 174.549 14.2564 175.351 14.2564C175.928 14.2564 176.525 14.3934 177.126 14.6634L177.277 14.7312V11.2407L177.206 11.2144C176.645 11.0113 175.883 10.9091 174.938 10.9091C173.746 10.9091 172.664 11.1703 171.72 11.6881C170.776 12.2066 170.033 12.9467 169.512 13.8878C168.994 14.8278 168.73 15.9135 168.73 17.1149V19.506H165.887V22.8204H168.73V36.7833H172.813V22.8204H178.867V31.6936C178.867 35.348 180.577 37.1999 183.951 37.1999C184.505 37.1999 185.088 37.1344 185.684 37.0063C186.29 36.8747 186.703 36.7432 186.946 36.6028L187 36.5707V33.2257L186.834 33.3364C186.613 33.4852 186.337 33.6068 186.013 33.6972C185.688 33.7892 185.417 33.8354 185.207 33.8354C184.417 33.8354 183.832 33.6208 183.469 33.1973C183.102 32.77 182.916 32.0227 182.916 30.9773V22.8204H187ZM156.77 33.8359C155.289 33.8359 154.12 33.3408 153.297 32.3654C152.469 31.3851 152.049 29.9876 152.049 28.2119C152.049 26.3798 152.469 24.946 153.298 23.9484C154.121 22.9573 155.278 22.4544 156.737 22.4544C158.153 22.4544 159.279 22.9347 160.087 23.8829C160.898 24.836 161.309 26.2584 161.309 28.1118C161.309 29.9879 160.922 31.4291 160.159 32.3931C159.401 33.3499 158.261 33.8359 156.77 33.8359ZM156.952 19.0898C154.125 19.0898 151.88 19.9246 150.279 21.5711C148.679 23.2177 147.868 25.4964 147.868 28.3444C147.868 31.0495 148.66 33.2254 150.221 34.8105C151.783 36.3963 153.909 37.1995 156.538 37.1995C159.279 37.1995 161.479 36.3531 163.079 34.6838C164.679 33.0164 165.49 30.7593 165.49 27.9778C165.49 25.2304 164.729 23.0383 163.229 21.4637C161.727 19.8883 159.615 19.0898 156.952 19.0898ZM141.286 19.0898C139.363 19.0898 137.772 19.5855 136.557 20.5629C135.335 21.5461 134.715 22.8356 134.715 24.3959C134.715 25.207 134.849 25.9275 135.112 26.5386C135.377 27.1517 135.787 27.6916 136.332 28.1446C136.873 28.594 137.707 29.0647 138.813 29.5436C139.743 29.9292 140.436 30.2554 140.877 30.5124C141.307 30.7644 141.613 31.0176 141.786 31.2643C141.953 31.5056 142.038 31.836 142.038 32.2436C142.038 33.4044 141.176 33.9692 139.401 33.9692C138.743 33.9692 137.992 33.8306 137.169 33.5575C136.353 33.2886 135.582 32.8947 134.884 32.3897L134.714 32.2672V36.2282L134.777 36.2574C135.354 36.5261 136.082 36.7527 136.941 36.931C137.797 37.1095 138.576 37.2003 139.252 37.2003C141.339 37.2003 143.019 36.7022 144.245 35.719C145.479 34.7291 146.104 33.4091 146.104 31.7948C146.104 30.6302 145.768 29.6315 145.104 28.8261C144.445 28.0272 143.301 27.2938 141.706 26.6455C140.435 26.1313 139.621 25.7046 139.285 25.377C138.961 25.0605 138.797 24.6129 138.797 24.0461C138.797 23.5436 139 23.1411 139.416 22.8151C139.836 22.4875 140.421 22.3209 141.154 22.3209C141.834 22.3209 142.53 22.4292 143.222 22.6414C143.913 22.8536 144.521 23.1378 145.028 23.4855L145.195 23.6003V19.843L145.131 19.8152C144.663 19.6131 144.046 19.44 143.297 19.2997C142.551 19.1602 141.874 19.0898 141.286 19.0898ZM124.072 33.8359C122.591 33.8359 121.422 33.3408 120.599 32.3654C119.771 31.3851 119.352 29.9879 119.352 28.2119C119.352 26.3798 119.771 24.946 120.6 23.9484C121.423 22.9573 122.58 22.4544 124.04 22.4544C125.455 22.4544 126.581 22.9347 127.389 23.8829C128.2 24.836 128.612 26.2584 128.612 28.1118C128.612 29.9879 128.224 31.4291 127.461 32.3931C126.703 33.3499 125.563 33.8359 124.072 33.8359ZM124.254 19.0898C121.427 19.0898 119.181 19.9246 117.581 21.5711C115.981 23.2177 115.17 25.4964 115.17 28.3444C115.17 31.0506 115.962 33.2254 117.524 34.8105C119.086 36.3963 121.211 37.1995 123.841 37.1995C126.581 37.1995 128.782 36.3531 130.382 34.6838C131.982 33.0164 132.793 30.7593 132.793 27.9778C132.793 25.2304 132.032 23.0383 130.531 21.4637C129.029 19.8883 126.917 19.0898 124.254 19.0898ZM108.973 22.4981V19.506H104.941V36.783H108.973V27.9451C108.973 26.4424 109.311 25.2078 109.978 24.2753C110.637 23.3539 111.515 22.887 112.586 22.887C112.95 22.887 113.357 22.9473 113.799 23.0667C114.236 23.1854 114.552 23.3143 114.739 23.4499L114.909 23.5737V19.4765L114.843 19.4483C114.468 19.2875 113.936 19.2063 113.264 19.2063C112.251 19.2063 111.344 19.5345 110.567 20.1806C109.886 20.7485 109.393 21.5271 109.016 22.4981H108.973ZM97.719 19.0898C95.869 19.0898 94.2189 19.4896 92.8153 20.2778C91.4088 21.0677 90.3211 22.1955 89.5811 23.6295C88.8443 25.0601 88.4702 26.7311 88.4702 28.5947C88.4702 30.2271 88.8329 31.7251 89.5498 33.0454C90.267 34.3679 91.2822 35.4025 92.5673 36.1201C93.8506 36.8367 95.3337 37.2001 96.9759 37.2001C98.8923 37.2001 100.529 36.8139 101.84 36.0524L101.893 36.0218V32.2985L101.724 32.4232C101.13 32.8595 100.466 33.2077 99.751 33.4585C99.0383 33.7092 98.3885 33.8359 97.8187 33.8359C96.2364 33.8359 94.9661 33.3369 94.0441 32.3532C93.1201 31.3682 92.6516 29.985 92.6516 28.2445C92.6516 26.493 93.1402 25.0743 94.1031 24.0275C95.0631 22.9838 96.3357 22.4544 97.8853 22.4544C99.2107 22.4544 100.502 22.9067 101.724 23.8L101.893 23.9238V20.0006L101.839 19.9697C101.379 19.7102 100.752 19.496 99.9732 19.3336C99.1978 19.1715 98.4395 19.0898 97.719 19.0898ZM85.6929 19.5062H81.6604V36.783H85.6929V19.5062ZM83.7179 12.1462C83.0542 12.1462 82.4753 12.3739 81.9997 12.8251C81.5222 13.2776 81.28 13.8473 81.28 14.5197C81.28 15.1815 81.5193 15.7408 81.9923 16.1813C82.4623 16.6205 83.043 16.8431 83.7181 16.8431C84.393 16.8431 84.9758 16.6205 85.4514 16.182C85.9301 15.7408 86.1728 15.1817 86.1728 14.5197C86.1728 13.8709 85.9366 13.307 85.4711 12.8434C85.006 12.3807 84.416 12.1462 83.7179 12.1462ZM73.6565 18.2315V36.783H77.7719V12.6751H72.076L64.8362 30.5817L57.8104 12.6751H51.8826V36.7828H55.75V18.2297H55.8828L63.3018 36.783H66.2204L73.5237 18.2315H73.6565Z" fill="#706D6E"/>
<path d="M18.9701 23.7374H0V4.61903H18.9701V23.7374Z" fill="#F1511B"/>
<path d="M39.9153 23.7374H20.9455V4.61903H39.9153V23.7374Z" fill="#80CC28"/>
<path d="M18.9696 44.8538H0V25.7355H18.9696V44.8538Z" fill="#00ADEF"/>
<path d="M39.9153 44.8538H20.9455V25.7355H39.9153V44.8538Z" fill="#FBBC09"/>
</g>
<defs>
<clipPath id="clip0_1_32">
<rect width="187" height="49" fill="white"/>
</clipPath>
</defs>
</svg>
