<svg width="187" height="36" viewBox="0 0 187 36" fill="none" xmlns="http://www.w3.org/2000/svg">
<path d="M80.7293 20.8424H93.0859L86.5522 10.4646L74.5605 29.228H69.1029L83.6887 6.6892C84.3229 5.77854 85.3798 5.22836 86.5522 5.22836C87.6859 5.22836 88.7428 5.75958 89.3578 6.65126L104.001 29.228H98.5436L95.9685 25.0352H83.4581L80.7293 20.8424ZM137.42 25.0352V5.45603H132.789V26.9514C132.789 27.5395 133.019 28.1087 133.461 28.545C133.903 28.9814 134.499 29.228 135.152 29.228H156.272L159.001 25.0352H137.42ZM60.8011 21.5254C65.298 21.5254 68.9493 17.9397 68.9493 13.5002C68.9493 9.06072 65.298 5.45603 60.8011 5.45603H40.5404V29.228H45.1699V9.64886H60.4936C62.646 9.64886 64.3756 11.3753 64.3756 13.5002C64.3756 15.6251 62.646 17.3515 60.4936 17.3515L47.4376 17.3325L61.2623 29.228H67.9884L58.6873 21.5254H60.8011ZM12.0416 29.228C5.39429 29.228 0 23.9159 0 17.3515C0 10.7872 5.39429 5.45603 12.0416 5.45603H26.0373C32.6864 5.45603 38.0769 10.7872 38.0769 17.3515C38.0769 23.9159 32.6864 29.228 26.0373 29.228H12.0416ZM25.726 25.0352C30.0326 25.0352 33.5205 21.6013 33.5205 17.3515C33.5205 13.1018 30.0326 9.64886 25.726 9.64886H12.3509C8.04625 9.64886 4.55634 13.1018 4.55634 17.3515C4.55634 21.6013 8.04625 25.0352 12.3509 25.0352H25.726ZM113.667 29.228C107.018 29.228 101.618 23.9159 101.618 17.3515C101.618 10.7872 107.018 5.45603 113.667 5.45603H130.29L127.581 9.64886H113.975C109.67 9.64886 106.173 13.1018 106.173 17.3515C106.173 21.6013 109.67 25.0352 113.975 25.0352H130.675L127.946 29.228H113.667ZM170.3 25.0352C166.745 25.0352 163.728 22.6827 162.806 19.4384H182.599L185.328 15.2456H162.806C163.728 12.0204 166.745 9.64886 170.3 9.64886H183.887L186.635 5.45603H169.993C163.344 5.45603 157.944 10.7872 157.944 17.3515C157.944 23.9159 163.344 29.228 169.993 29.228H184.271L187 25.0352H170.3Z" fill="#EA1B22"/>
</svg>
